# xmcd
#
# Track frame offsets:
#	150
#	18090
#	31705
#	47330
#	67000
#	90772
#	102913
#	115941
#	131354
#	147149
#	154927
#
# Disc length: 2446 seconds
#
# Revision: 0
# Processed by: cddbd v1.5.2PL0 Copyright (c) Steve Scherf et al.
# Submitted via: audiograbber 1.83.01
#
DISCID=7b098c0b
DTITLE=Various Artist - Putumayo Presents - Blues Around The World
DYEAR=2006
DGENRE=Blues
TTITLE0=The Unseen Guest - Listen My Son
TTITLE1=Blues Etilicos - Canceriano Sem Lar (Clinica Tobias Blues)
TTITLE2=Big Mama and Victor Uris - No Way Out
TTITLE3=Jarabe De Palo - La Flaca
TTITLE4=Bonnie Raitt with Habib Koite - Back Around
TTITLE5=Amar Sundy - Ouallache
TTITLE6=Otis Spann - I Got A Feeling
TTITLE7=Eric Bibb, Rory Block and Maria Muldaur - Don't Ever Let Nobody Drag Your
TTITLE7=Spirit Down
TTITLE8=Long-ge - Playing Mahjong
TTITLE9=Botafogo - Slide Blues
TTITLE10=Taj Mahal Meets The Culture Musical Club Of Zanzibar - Catfish Blues
EXTD=http://www.putumayo.com\nCatalog # PUT 253-2\nSubmitted by DJ Neo
EXTT0=
EXTT1=
EXTT2=
EXTT3=
EXTT4=
EXTT5=
EXTT6=
EXTT7=
EXTT8=
EXTT9=
EXTT10=
PLAYORDER=
